<?xml version="1.0" encoding="UTF-8"?>
<svg width="94px" height="94px" viewBox="0 0 94 94" version="1.1" xmlns="http://www.w3.org/2000/svg" xmlns:xlink="http://www.w3.org/1999/xlink">
    <!-- Generator: Sketch 63.1 (92452) - https://sketch.com -->
    <title>Mark</title>
    <desc>Created with Sketch.</desc>
    <g id="Mockups" stroke="none" stroke-width="1" fill="none" fill-rule="evenodd">
        <g id="Artboard" transform="translate(-457.000000, -204.000000)">
            <g id="Mark" transform="translate(459.000000, 206.000000)">
                <path d="M45,0 C69.8524666,0 90,20.1468822 90,45 C90,69.8524666 69.8524666,90 45,90 C20.1475334,90 0,69.8524666 0,45 C0,20.1468822 20.1475334,0 45,0 Z" id="Stroke-1" stroke="#000000" stroke-width="3.121"></path>
                <path d="M65.1141205,47 C62.6442964,46.996181 60.3301086,48.0950949 58.7960727,49.9987303 C58.0664862,50.8838602 56.4575872,52.7441006 54.9760867,53.425657 C54.0941474,53.7957906 53.1445687,53.9897916 52.1844828,53.9968114 C49.0980235,53.9968114 47.7774129,52.5686062 46.1599769,50.7096421 C44.4486338,48.890244 42.485777,47 38.9593331,47 C34.0452958,47 32.2676266,50.3892851 31.3180479,51.2833492 C30.0887177,52.6400803 28.1055034,53.8468435 26.0250985,53.8538633 L25.73484,53.8538633 C25.2941987,53.8538633 25,54.4250177 25,54.9961721 C25,55.5686029 25.2941987,55.9929802 25.73484,55.9929802 C28.4968927,55.9929802 30.398677,54.8213159 32.0528878,52.9974507 C33.3557677,51.62668 33.9599257,50.883222 35.8150847,49.7000708 C35.9470801,49.6164717 36.099433,49.5424449 36.2412788,49.4818196 C37.0470417,49.1384888 37.9316078,49.0057512 38.8122337,49 C41.8980363,49 43.2193036,50.4282129 44.8367396,52.2865389 C46.7470609,54.1429504 48.5102829,56 52.0367268,56 C55.8219079,56 58.330477,53.4122556 59.6773553,51.7077265 C60.8672839,50.1761392 62.8912131,49.1480612 64.9709613,49.1423177 L65.2645033,49.1423177 C65.7058013,49.1423177 66,48.7141115 66,48.1461478 C65.9960598,47.4282163 65.5554185,47 65.1141205,47" id="Fill-3" fill="#000000"></path>
                <path d="M65.1141205,35 C62.6442964,34.996181 60.3301086,36.0950949 58.7960727,37.9987303 C58.0664862,38.8838602 56.4575872,40.7441006 54.9760867,41.4262951 C54.0941474,41.7957906 53.1445687,41.9904298 52.1844828,41.9968114 C49.0980235,41.9968114 47.7774129,40.5686062 46.1599769,38.7096421 C44.4486338,36.890244 42.485777,35 38.9593331,35 C34.0452958,35 32.2676266,38.3892851 31.3180479,39.2833492 C30.0887177,40.6400803 28.1055034,41.8468435 26.0250985,41.8545014 L25.73484,41.8545014 C25.2941987,41.8545014 25,42.4250177 25,42.9968103 C25,43.5686029 25.2941987,43.9923421 25.73484,43.9923421 C28.4968927,43.9923421 30.398677,42.8213159 32.0528878,40.9974507 C33.3557677,39.62668 33.9599257,38.883222 35.8150847,37.700709 C35.9470801,37.6158335 36.099433,37.5430831 36.2412788,37.4824578 C37.0470417,37.1384888 37.9316078,37.0063894 38.8122337,37 C41.8980363,37 43.2193036,38.4282129 44.8367396,40.2865389 C46.7470609,42.1429504 48.5102829,44 52.0367268,44 C55.8219079,44 58.330477,41.4122556 59.6773553,39.7077265 C60.8672839,38.1761392 62.8912131,37.1486994 64.9709613,37.1423177 L65.2645033,37.1423177 C65.7058013,37.1423177 66,36.7141115 66,36.1461478 C65.9960598,35.4282163 65.5554185,35 65.1141205,35" id="Fill-5" fill="#000000"></path>
            </g>
        </g>
    </g>
</svg>